<svg xmlns="http://www.w3.org/2000/svg" xmlns:xlink="http://www.w3.org/1999/xlink" width="84" height="24" viewBox="0 0 84 24"><defs><clipPath id="b"><rect width="84" height="24"/></clipPath></defs><g id="a" clip-path="url(#b)"><g transform="translate(-245 -3011)"><path d="M26.1,15.414c-.378-.31-.791-.619-1.169-.929-.172-.138-.344-.275-.55-.413L23.21,13.11l.481-.378c.757-.619,1.582-1.272,2.339-1.891a4.9,4.9,0,0,0,.413-.378,1.737,1.737,0,0,0-.413-2.51L23.864,6.2l-1.169-.963c-.447-.344-.894-.722-1.341-1.066-1.032-.825-2.063-1.685-3.129-2.51a2.381,2.381,0,0,0-2.992-.034C12.171,4.1,9.661,6.095,7.357,7.952a1.757,1.757,0,0,0,0,2.889c.275.206.516.413.791.619a5.987,5.987,0,0,1,.481.413c.413.344.825.653,1.238,1l.31.241c-.275.241-.585.481-.86.688-.653.516-1.341,1.066-1.995,1.616a1.763,1.763,0,0,0-.034,2.82c.241.206.516.413.791.619.1.069.206.172.31.241.619.481,1.238,1,1.823,1.479,1.616,1.307,3.3,2.682,4.987,3.989a2.261,2.261,0,0,0,1.479.55,2.751,2.751,0,0,0,1.135-.275,3.877,3.877,0,0,0,.619-.413.475.475,0,0,1,.138-.1l1.2-.963c2.1-1.685,4.23-3.4,6.362-5.124a1.845,1.845,0,0,0,.722-1.41A2.069,2.069,0,0,0,26.1,15.414ZM15.851,8.674a4.5,4.5,0,0,0-1.307.929,4.356,4.356,0,0,1-.447.378c-.653.516-1.272,1.032-1.926,1.548-.206.172-.447.344-.653.516a6.328,6.328,0,0,0-.757-.585c-.791-.653-1.616-1.307-2.407-1.96-.1-.069-.1-.1-.1-.1s0-.069.138-.172c1.685-1.376,3.4-2.751,5.09-4.127l1.2-.963c.378-.31.757-.619,1.169-.929ZM8.388,16.687c.86-.688,1.754-1.41,2.614-2.1l.516-.413c.275.206.55.447.825.653.894.722,1.823,1.479,2.751,2.2.172.138.378.275.585.413.069.034.1.069.172.1v5.468C13.375,21.02,10.9,19.025,8.388,17c-.138-.1-.138-.172-.138-.172S8.251,16.79,8.388,16.687ZM25.033,9.5l-1.135.929c-.138.138-.31.241-.447.378L21.9,12.044l-1.548-1.238c-.206-.172-.378-.31-.585-.481L18.224,9.087c-.138-.1-.275-.172-.413-.275a1.5,1.5,0,0,1-.241-.138h0V3.206l.138.1c.413.31.791.619,1.169.929C20.906,5.854,22.935,7.5,24.93,9.121l.034.034a.475.475,0,0,0,.138.1c.1.1.1.138.1.138C25.136,9.4,25.136,9.431,25.033,9.5Zm-7.841,6.328a.706.706,0,0,1-1,0c-1-.825-2.029-1.616-3.026-2.442l-.344-.275,2.751-2.2c.069-.069.138-.1.206-.172a5.881,5.881,0,0,1,.481-.378.725.725,0,0,1,.86-.034c.894.722,1.788,1.444,2.682,2.132.275.206.516.413.791.619-.1.069-.172.138-.275.206-.894.722-1.823,1.479-2.717,2.2Zm.344,1.72a.752.752,0,0,0,.172-.1,6.451,6.451,0,0,0,.619-.413c.929-.722,1.857-1.479,2.751-2.2.275-.206.55-.447.825-.653l.344.275c.378.31.722.585,1.1.894.447.378.894.722,1.341,1.1l.206.172c.172.138.241.206.241.241s-.069.1-.241.241c-2.373,1.891-4.711,3.817-7.084,5.709l-.275.241v-5.5Z" transform="translate(238.4 3009.888)" fill="#170c3a"/></g><path d="M13.448-11.367l-5,12.737H5.418L.24-11.367H3.588l3.374,9.1,3.3-9.1ZM23.962-.042A3.019,3.019,0,0,1,22.51,1.265a5.032,5.032,0,0,1-2.158.471A4.5,4.5,0,0,1,16.835.3,5.23,5.23,0,0,1,15.54-3.338v-8.029h3.034v7.48A3.32,3.32,0,0,0,19.2-1.795a2.294,2.294,0,0,0,1.935.811,2.5,2.5,0,0,0,1.975-.785A3.006,3.006,0,0,0,23.8-3.835v-7.532h3.034V-.958a21.066,21.066,0,0,0,.131,2.328h-2.9A8.061,8.061,0,0,1,23.962-.042ZM34.606-15.264v3.9h2.642v2.694H34.606v5.911A1.631,1.631,0,0,0,35-1.546a1.715,1.715,0,0,0,1.229.379,5.322,5.322,0,0,0,1.046-.1V1.239a4.876,4.876,0,0,1-1.857.288A3.81,3.81,0,0,1,32.618.52,3.737,3.737,0,0,1,31.6-2.266V-8.673H29.245v-2.694H29.9a1.875,1.875,0,0,0,1.465-.549,2.062,2.062,0,0,0,.5-1.438v-1.909Zm9.546,0v3.9h2.642v2.694H44.152v5.911a1.631,1.631,0,0,0,.392,1.216,1.715,1.715,0,0,0,1.229.379,5.322,5.322,0,0,0,1.046-.1V1.239a4.876,4.876,0,0,1-1.857.288A3.81,3.81,0,0,1,42.165.52a3.737,3.737,0,0,1-1.02-2.785V-8.673H38.791v-2.694h.654a1.875,1.875,0,0,0,1.465-.549,2.062,2.062,0,0,0,.5-1.438v-1.909Zm12.972,3.818v3.086a6.71,6.71,0,0,0-.994-.078Q52.7-8.438,52.7-4.7V1.37H49.671V-11.367h2.955v2.04a3.427,3.427,0,0,1,1.438-1.608,4.33,4.33,0,0,1,2.249-.588A4.125,4.125,0,0,1,57.125-11.446Z" transform="translate(26.06 18.764)" fill="#170c3a"/></g></svg>